# 3ds Max Wavefront OBJ Exporter v0.97b - (c)2007 guruware
# File Created: 20.01.2019 20:58:12

mtllib cube.mtl

#
# object Box001
#

v  -14.0362 0.0000 0.6654
v  -14.0362 0.0000 -4.3346
v  -9.0362 0.0000 -4.3346
v  -9.0362 0.0000 0.6654
v  -14.0362 5.0000 0.6654
v  -9.0362 5.0000 0.6654
v  -9.0362 5.0000 -4.3346
v  -14.0362 5.0000 -4.3346
# 8 vertices

vn 0.0000 -1.0000 -0.0000
vn 0.0000 1.0000 -0.0000
vn 0.0000 0.0000 1.0000
vn 1.0000 0.0000 -0.0000
vn 0.0000 0.0000 -1.0000
vn -1.0000 0.0000 -0.0000
# 6 vertex normals

vt 1.0000 0.0000 -0.7988
vt 1.0000 1.0000 -0.7988
vt -0.0000 1.0000 -0.7988
vt 0.0000 -0.0000 -0.7988
vt -0.0000 0.0000 0.2012
vt 1.0000 -0.0000 0.2012
vt 1.0000 1.0000 0.2012
vt 0.0000 1.0000 0.2012
vt -0.0000 -0.7988 0.0000
vt 1.0000 -0.7988 -0.0000
vt 1.0000 0.2012 -0.0000
vt -0.0000 0.2012 0.0000
vt -0.0000 -0.7988 1.0000
vt 1.0000 -0.7988 1.0000
vt 1.0000 0.2012 1.0000
vt -0.0000 0.2012 1.0000
# 16 texture coords

g Box001
usemtl 01___Default
f 1/1/1 2/2/1 3/3/1 
f 3/3/1 4/4/1 1/1/1 
f 5/5/2 6/6/2 7/7/2 
f 7/7/2 8/8/2 5/5/2 
f 1/9/3 4/10/3 6/11/3 
f 6/11/3 5/12/3 1/9/3 
f 4/13/4 3/14/4 7/15/4 
f 7/15/4 6/16/4 4/13/4 
f 3/13/5 2/14/5 8/15/5 
f 8/15/5 7/16/5 3/13/5 
f 2/9/6 1/10/6 5/11/6 
f 5/11/6 8/12/6 2/9/6 
# 12 faces

